<svg width="482" height="482" viewBox="0 0 482 482" fill="none" xmlns="http://www.w3.org/2000/svg">
<path fill-rule="evenodd" clip-rule="evenodd" d="M271 20C271 8.9543 279.954 0 291 0H462C473.046 0 482 8.9543 482 20V191C482 202.046 473.046 211 462 211H291C279.954 211 271 202.046 271 191V20ZM302 105C302 96.7157 308.716 90 317 90H437C445.284 90 452 96.7157 452 105C452 113.284 445.284 120 437 120H317C308.716 120 302 113.284 302 105Z" fill="black"/>
<path fill-rule="evenodd" clip-rule="evenodd" d="M271 291C271 279.954 279.954 271 291 271H462C473.046 271 482 279.954 482 291V462C482 473.046 473.046 482 462 482H291C279.954 482 271 473.046 271 462V291ZM302 348C302 339.716 308.716 333 317 333H437C445.284 333 452 339.716 452 348C452 356.284 445.284 363 437 363H317C308.716 363 302 356.284 302 348ZM317 390C308.716 390 302 396.716 302 405C302 413.284 308.716 420 317 420H437C445.284 420 452 413.284 452 405C452 396.716 445.284 390 437 390H317Z" fill="black"/>
<path fill-rule="evenodd" clip-rule="evenodd" d="M0 20C0 8.9543 8.9543 0 20 0H191C202.046 0 211 8.9543 211 20V191C211 202.046 202.046 211 191 211H20C8.9543 211 0 202.046 0 191V20ZM30 105C30 96.7157 36.7157 90 45 90H90V45C90 36.7157 96.7157 30 105 30C113.284 30 120 36.7157 120 45V90H165C173.284 90 180 96.7157 180 105C180 113.284 173.284 120 165 120H120V165C120 173.284 113.284 180 105 180C96.7157 180 90 173.284 90 165V120H45C36.7157 120 30 113.284 30 105Z" fill="black"/>
<path fill-rule="evenodd" clip-rule="evenodd" d="M0 291C0 279.954 8.9543 271 20 271H191C202.046 271 211 279.954 211 291V462C211 473.046 202.046 482 191 482H20C8.9543 482 0 473.046 0 462V291ZM51.6066 429.673C45.7487 423.815 45.7487 414.317 51.6066 408.459L83.4264 376.64L51.6066 344.82C45.7487 338.962 45.7487 329.464 51.6066 323.607C57.4645 317.749 66.9619 317.749 72.8198 323.607L104.64 355.426L136.459 323.607C142.317 317.749 151.815 317.749 157.673 323.607C163.53 329.464 163.53 338.962 157.673 344.82L125.853 376.64L157.673 408.459C163.53 414.317 163.53 423.815 157.673 429.673C151.815 435.53 142.317 435.53 136.459 429.673L104.64 397.853L72.8198 429.673C66.9619 435.53 57.4645 435.53 51.6066 429.673Z" fill="black"/>
</svg>
